<?xml version="1.0" encoding="UTF-8"?>
<svg width="294.84mm" height="233.12mm" version="1.1" viewBox="0 0 294.83978 233.12318" xmlns="http://www.w3.org/2000/svg" xmlns:xlink="http://www.w3.org/1999/xlink">
 <defs>
  <linearGradient id="b">
   <stop stop-color="#e7ac7a" offset="0"/>
   <stop stop-color="#fff" offset="1"/>
  </linearGradient>
  <linearGradient id="a">
   <stop stop-color="#fff" offset="0"/>
   <stop stop-color="#fff" stop-opacity="0" offset="1"/>
  </linearGradient>
  <linearGradient id="t" x1="-74.684" x2="-82.502" y1="-79.436" y2="543.3" gradientTransform="matrix(1.912 0 0 1.912 166.73 -160.69)" gradientUnits="userSpaceOnUse">
   <stop stop-color="#d35e5e" offset="0"/>
   <stop stop-color="#ffff8e" offset="1"/>
  </linearGradient>
  <linearGradient id="u" x1="-115.41" x2="-118.67" y1="-198.01" y2="346.28" gradientUnits="userSpaceOnUse" xlink:href="#a"/>
  <linearGradient id="v" x1="-95.754" x2="-89.947" y1="-119.39" y2="452.11" gradientUnits="userSpaceOnUse" xlink:href="#a"/>
  <linearGradient id="w" x1="-88.194" x2="-97.506" y1="-61.937" y2="303.94" gradientUnits="userSpaceOnUse" xlink:href="#a"/>
  <linearGradient id="x" x1="-114.48" x2="-116.76" y1="-.43434" y2="328.84" gradientUnits="userSpaceOnUse" xlink:href="#a"/>
  <linearGradient id="y" x1="-287.77" x2="59.732" y1="228.35" y2="228.35" gradientTransform="translate(342.37 -114.33)" gradientUnits="userSpaceOnUse" xlink:href="#a"/>
  <linearGradient id="z" x1="-242.41" x2="14.375" y1="228.35" y2="228.35" gradientTransform="translate(342.37 -114.33)" gradientUnits="userSpaceOnUse" xlink:href="#a"/>
  <linearGradient id="aa" x1="-201.59" x2="-26.447" y1="228.35" y2="228.35" gradientTransform="matrix(1.0863 0 0 1.0863 352.21 -134.04)" gradientUnits="userSpaceOnUse" xlink:href="#a"/>
  <linearGradient id="ab" x1="268.07" x2="-19.267" y1="263.13" y2="226.78" gradientUnits="userSpaceOnUse" xlink:href="#b"/>
  <linearGradient id="ac" x1="310.83" x2="164.61" y1="53.588" y2="94.213" gradientUnits="userSpaceOnUse" xlink:href="#b"/>
  <linearGradient id="ae" x1="-115.41" x2="-118.67" y1="-198.01" y2="346.28" gradientTransform="matrix(1.2306 0 0 1.2306 26.291 -52.654)" gradientUnits="userSpaceOnUse" xlink:href="#a"/>
  <linearGradient id="ad" x1="-535.27" x2="-337.17" y1="165.12" y2="164.33" gradientUnits="userSpaceOnUse" xlink:href="#b"/>
  <clipPath id="s">
   <circle cx="-92.85" cy="192.06" r="454.96" fill="#280b0b" opacity=".586" style="paint-order:markers stroke fill"/>
  </clipPath>
  <linearGradient id="af" x1="-535.27" x2="-337.17" y1="165.12" y2="164.33" gradientTransform="matrix(.3326 0 0 .3326 152.33 41.461)" gradientUnits="userSpaceOnUse" xlink:href="#b"/>
  <linearGradient id="ag" x1="-535.27" x2="-337.17" y1="165.12" y2="164.33" gradientTransform="matrix(.31294 0 0 .31294 136.82 102.87)" gradientUnits="userSpaceOnUse" xlink:href="#b"/>
  <linearGradient id="ah" x1="-535.27" x2="-337.17" y1="165.12" y2="164.33" gradientTransform="matrix(-.24413 0 0 .24413 106.25 88.206)" gradientUnits="userSpaceOnUse" xlink:href="#b"/>
 </defs>
 <g transform="translate(46.219 -39.066)">
  <rect x="-46.219" y="39.066" width="294.84" height="233.12" fill="#141526" style="paint-order:markers stroke fill"/>
  <g transform="matrix(.24748 0 0 .24748 125.9 109.97)" clip-path="url(#s)">
   <rect x="-1321.4" y="-426.82" width="2277.1" height="1206" fill="url(#t)" style="paint-order:markers stroke fill"/>
   <path d="m-523.12 333.29 155.73-51.405 84.667-18.143 39.31 12.095 84.667 13.607 98.274 25.702 74.083 1.5119 143.63-30.238 105.83 27.214 89.202 31.75 102.81 34.774 1.5119 90.714l-949.48-28.726-78.619-18.143-240.39-7.5595 108.86-25.702 95.25-37.798z" fill="#b8404e"/>
   <path d="m81.643 405.86 86.179-15.119 34.774-22.679 101.3-15.119 122.46-39.31 25.702 54.429 3.0238 98.274-381-22.679z" fill="#963b4a"/>
   <path d="m-562.34 211.47-55.592 25.658-211.68 57.73-4.2762 305.76 532.4 12.829 335.69 6.4141-19.243-117.6-29.934-51.316-151.81-51.316-58.366-20.126-1.2351-7.937-1.7043 6.9236-0.70125-0.24183-8.7333-0.64698-1.4226-11.38-0.9679 11.203-24.207-1.7927-2.0867-8.6082s0.0591 4.2553 0.11679 8.462l-3.315-0.24545-2.4143-17.304-0.95808 17.054-4.0794-0.30231-2.1792-11.674-0.14727 11.501-7.336-0.54311-55.592-40.625-4.9-3.4029-0.73279-7.6212-0.80254 6.5552-4.3759-3.0386-2.3812-18.258-1.2304 15.749-7.6068-5.2824-0.99013-11.223-0.96996 9.8619-3.5657-2.4763v-18.725l-3.1688 16.525-46.249-32.118-36.349-14.967-49.177-53.454z" fill="#963b4a"/>
   <path d="m-562.34 211.47-0.0967 0.0444 54.432 8.3747 15.119 10.583 24.191 30.238 18.143 18.143v-9.0718l27.214 15.119 42.333 28.726 66.524 55.94 30.238 12.095 110.37 21.167-5.7134-7.6176-45.56-15.711-1.2351-7.937-1.7043 6.9236-0.70125-0.24183-8.7333-0.64698-1.4226-11.38-0.9679 11.203-24.207-1.7927-2.0867-8.6082s0.0591 4.2553 0.11679 8.462l-3.315-0.24545-2.4143-17.304-0.95808 17.054-4.0794-0.30231-2.1792-11.674-0.14727 11.501-7.336-0.54311-55.592-40.625-4.9-3.4029-0.73279-7.6212-0.80254 6.5552-4.3759-3.0386-2.3812-18.258-1.2304 15.749-7.6068-5.2824-0.99013-11.223-0.96996 9.8619-3.5657-2.4763v-18.725l-3.1688 16.525-46.249-32.118-36.349-14.967-49.177-53.454z" fill="#fff" opacity=".031"/>
   <path d="m108.41 356.38-3.6706 32.866-4.0928-1.048-4.7987-27.008-2.8422 25.051-39.816-10.197-39.583 6.9851-1.5849-10.664-1.2263 11.16-3.7667 0.66456-2.758-20.912-1.7017 21.699-3.7476 0.66146-2.5688-16.48-0.60823 17.041-19.563 3.452-60.476 21.167-105.83 1.5121-61.988 16.631-23.599 14.749-3.7543-18.96-1.5219 22.258-3.3967 2.1229-2.5652-38.012-4.6468 42.519-1.7859 1.1162-3.4561-17.176-0.10232 19.4-2.2908 1.432-4.5558-29.384-2.1663 33.938-4.8979 3.3776-3.3595-25.556s-0.90001 20.928-1.3689 28.817l-72.604 50.071 873.88 16.631-9.0713-83.155-107.35-21.167-111.88-1.5115-80.131-22.679-24.223-6.2038-3.9083-17.415-1.8764 15.934-5.4854-1.4051-3.8638-16.934-1.8278 15.477-3.0282-0.77565-5.5671-35.281-3.6757 32.914-2.4515-0.62788-4.2964-21.596-2.2975 19.907-0.69246-0.17724z" fill="#783545"/>
   <path d="m-542.81 338.18-10.247 60.549-4.0504-0.85265-3.6266-34.046-5.7805 32.066-4.438-0.93429-3.145-29.528-5.3402 29.623-8.6093 0.53795-3.1559-29.627-5.4374 30.164-24.287 1.5183-40.821-24.191-92.226-16.631-3.0236 149.68h122.46l344.71-10.583-63.5-19.655-43.845-25.702-51.405-12.095-54.428-25.702-19.908-5.8989-3.6169-33.953-5.627 31.214-4.1879-1.2407z" fill="#783545"/>
   <circle cx="-114.02" cy="228.35" r="66.403" fill="#fff" style="paint-order:markers stroke fill"/>
   <path d="m-96.803 227.47c-2.8633 10.787-20.293 31.862-27.503 5.9557-0.48398 11.786-4.1397 19.79-12.127 22.63l6.0637 1.7322 2.3818 2.1658 0.65008 8.9871-6.8218 0.10851-0.32505 4.9806 3.6814 0.21653v1.6242l1.1912-0.10853 2.2743 2.3823 0.31006 5.7893-0.87333-1.741 0.76791 2.2557-0.20774 0.41495-0.49092-0.65577 0.3638 0.91054-0.0651 0.12972-0.0775 0.0233-1.5715-2.2552 1.2712 2.5606-0.0925 0.15865-1.2619-1.0087 1.0175 1.4304-0.0506 0.0863-1.1534-0.80357 0.92294 1.201-26.445 45.545-1.3116 0.96171-7e-3 -0.26202-0.18087 0.4-0.75241 0.55136 0.0481-4.0121-0.67024 4.469-0.27286 0.2-0.33073-1.9802-0.23254 2.3931-0.078 0.0574-0.65267-4.9279-0.078 4.8535-1.1896-2.6665 0.42633 2.9962-1.1539-2.188 0.6165 3.422-1.8304 1.3426 0.0553-4.6586-0.77774 5.1883-0.80615 0.59119-0.30127-1.8009-0.21136 2.1771-0.40101 0.29353-0.81287-6.1361-0.11007 6.813-0.12816 0.0941-1.6371-3.6716 0.62735 4.4121-6e-3 5e-3 -1.6981-3.2205 0.71106 3.9445-9.5322 6.9898-35.659 137.97-24.19 12.095-48.381-4.5356-44.197-20.625 0.39222-0.80097-0.78753 0.6165-0.11732-0.0548 1.2697-2.3575-1.6077 2.1998-0.12247-0.0573 0.3643-1.1121-0.65214 0.99738-0.0894-0.0244 0.91107-2.4924-1.2981 2.3869-0.031-9e-3 0.10025-1.602-0.5271 1.4857-0.0558-0.0151-3e-3 -1.2526-0.36174 1.1529-0.63561-0.17312 0.78497-1.6035-1.7219 1.3477-0.12866-0.0351 2.544-4.7232-3.3006 4.517-0.12195-0.0331 0.82786-2.5275-1.5276 2.3368-0.0532-0.0151 1.9032-5.2069-2.5337 4.6571 0.19947-3.1828-1.1054 3.1156-8e-3 -2.7016-0.83767 2.6696-0.88884-0.24235 0.16174-0.33023-0.35449 0.27752-0.34623-0.0946 1.0656-1.9782-1.3823 1.8919-0.24392-0.0667 0.26046-0.79529-0.48059 0.73536-0.15814-0.0429 0.80875-2.2112-1.1524 2.1172-0.15812-0.0429 0.0811-1.2981-0.42685 1.2035-0.15658-0.0424-3e-3 -0.94361-0.27234 0.86868-1.3958-0.38086-0.11369-2.3146c4.589 0.17317 5.3471-2.9527 5.534-4.9806-2.1506-11.196-4.8693-20.404-6.3639-33.896-1.8659 13.009-5.4526 22.576-8.3013 33.619-0.86554 5.4007 3.5 4.7986 5.6725 5.811l-0.0145 0.78237-13.383-3.6494 0.49353-0.85108-1.0392 0.70225-0.22064-0.0605 1.9265-3.0437-2.45 2.9011-0.1509-0.0414 0.64855-1.5922-1.1121 1.4656-0.0739-0.0201 1.5616-3.4907-2.0448 3.2003 0.30282-2.2645-0.94671 2.1714 0.13023-1.9317-0.72501 1.8459-1.4134-0.3855-0.16809-5.9423c8.8653 0.33451 11.653-5.704 10.502-10.945-4.1545-21.63-9.4069-39.416-12.294-65.481-3.6046 25.13-10.533 43.614-16.036 64.946-1.672 10.433 6.7611 9.2692 10.958 11.225l-0.0636 3.4329-0.37309 0.72398-0.15451-0.0424 0.17208-2.6985-0.52916 2.6014-0.20672-0.0563-0.1111-0.97305-0.13592 0.90588-0.17415-0.0476-0.19015-2.3735-0.15505 2.2789-0.31779-0.0863-0.35502-0.92138 0.076 0.84489-0.41187-0.11213-0.12557-0.27077 0.031 0.24495-19.275-5.2565-0.10594-2.1534c8.315 0.31377 9.6886-5.3498 10.027-9.0242-3.8966-20.287-8.8228-36.97-11.531-61.417-3.3809 23.571-9.8792 40.906-15.041 60.915-0.68609 4.2812 0.44199 6.4809 2.2578 7.754l-5.1289-1.3989-40.821 7.5592-31.75-9.0713-58.964 12.095-9.0713-9.0713-42.334 16.63s-66.524 3.0241-72.571 3.0241c-6.0476 0-7.5592 96.762-7.5592 96.762l1044.7 12.095-55.94-27.214-93.738-21.167-121.99-46.976-35.919-4.9026-18.402 2.8722-62.829-36.716-24.558-61.317-5.7423-7.83 2.5373-2.0314-3.451 0.78549-0.26355-0.35967 7.5696-5.5919-8.3364 4.5465-0.30127-0.41135 2.7456-2.9058-3.361 2.0666-0.22686-0.30903 6.4068-6.3366-7.1918 5.2664-0.24908-0.34005 2.3663-4.3-1.2128 1.2227 0.69867-1.372-2.6257 1.9895 0.94774-2.0262-1.0966 1.1901 4.1532-7.4285-5.6286 7.4543-0.38706-0.5276 1.17-3.3905-1.7544 2.5937-0.39377-0.53692 2.8272-7.3732-3.5822 6.3438-0.95653-1.3043 0.18759-2.3859-0.65267 1.7518-0.82734-1.1286-7.5592-34.774-8.8599-6.6451 0.18913-1.42-3.0737-1.7369-0.93534-7.6176h-2.8531l-1.1994-2.9125 0.31058-4.0365h-1.9724l-1.6635-4.04-0.10594-2.6417-0.96377 0.0439-1.5513-3.7672-8.0083-4.9284 0.56741-0.36793-1.249-3.3714 0.75809-6.9298 3.6814-3.4649 2.1658-0.43307 0.43305-4.7646-5.4136 0.21653 0.75757-8.0124 1.0831-1.1911 4.7641-1.1911c-4.4462-8.451-3.262-20.069-3.3569-30.968zm-29.578 31.144 1.6464 0.38293-1.6846 2.3735v-1.9523zm3.1585 0.36484 5.9009 0.97462 2.1658 3.7357-0.16278 5.0348-10.719 0.32505-0.43305-6.0637zm16.35 1.6242-3.3569 5.6307v-3.2484l2.4908-2.2738zm4.3258 0.3421 1.8459 2.1482-0.64957 5.7929-5.0348-0.0543zm-9.848 0.95705 0.43304 0.81235-0.3793 5.8467-1.6237-0.16227 0.0538-4.4933zm-11.067 13.812h7.6564l-0.0734 6.0379-2.8949 0.86815-0.0134-0.49919-0.26303 0.5824-0.37 0.1111 0.0331-2.7678-0.43305 2.8877-0.24029 0.0718-0.19017-1.1374-0.11938 1.2304-0.14211 0.0424-0.39119-2.9517-0.0496 3.084-0.0832 0.0254-0.0103-0.0233 0.0253-9e-3 -0.0377-1.4134-0.31317 0.69247-0.3116-0.69813 0.0248-2.0686-0.41703 2.7802-0.17932-0.34004 0.12558 0.69765-0.0816 0.54467-0.31109-1.8609-0.18191 1.8738-0.47077-3.5522-0.0532 3.2887-0.80564-1.8071 0.28887 2.0309-0.78186-1.4826 0.40927 2.2706-1.0418 0.31266-0.14005-0.093-0.22944-6.2017zm10.061 0.81441 2.7564 2.1435 0.23151 3.4799-2.2283-1.3715-0.63613 0.19069zm10.858 1.7244-0.64957 4.331-1.4077 0.10853zm-19.146 3.9419 0.11369 0.79891-0.12609 0.27855h-5.3e-4zm0.17622 1.2382 1e-3 8e-3 -0.0868 0.0259-3e-3 -5e-3z" fill="#5c2f40"/>
   <path d="m12.769 386.33-12.859 71.283s-0.08812 4.8151 1.2614 6.6048c0.92159 1.2221 2.9853 2.2525 4.7982 2.9729l-6.8848 1.3286c0.8268-1.9625 1.685 0.3383 1.109-1.2428l-7.2905-63.359-10.043 60.515s-0.0074 0.67226 0.05736 1.5358l-3.6106 3.2825 0.67024-2.4262-2.2195 2.9425 1.789-6.8983-1.5999 3.2613-1.3255 2.7074-0.6196-1.5162-2.1689-2.512 1.7208 3.9558-0.09405 1.725h-0.44235l-0.23565-0.49816-0.59066 0.49816h-0.38447l-0.12299-4.2953-0.63924 4.2953h-0.38654l-0.36587-2.188-0.21239 2.188h-0.28525l-0.69712-5.2612-0.08475 5.2612h-0.3514l-1.1364-2.5487 0.36225 2.5487h-0.4501l-0.81494-1.5456 0.27854 1.5456h-2.4774l-7.4833-18.174-21.382-5.3454h-7.2962l0.15141-0.38034-0.41548 0.38034h-2.2557l3.6473-8.2295-5.0927 8.2295h-0.49868l-0.57051-0.78962 0.62425-2.5533-1.0661 1.9415-0.79323-1.0987 2.0867-7.4368-2.8562 6.3712-11.323-15.678-24.589-5.3454-2.959 2.6303-0.7028-1.9802-0.31988 2.8892-0.92087 0.81854-3.1972-10.255 1.9027 11.406-0.49557 0.44029-2.3523-4.5217 1.2201 5.5283-0.21755 0.19328-5.177-10.831 3.5378 11.518-4.8529-5.3837 3.3042 6.7484-4.4023-4.2819 3.2608 6.0787-6.8714 6.1081-26.727 12.829-8.5524 19.243-0.66921 0.061-0.0879-3.2437-1.5317 3.391-0.36018 0.0325 0.11368-9.571-1.4537 9.693-0.38137 0.0346-0.72347-4.3274-0.43046 4.4323-0.25425 0.0233-1.25-9.4309-0.15658 9.7472-2.389-5.3558 0.85576 6.0188-2.3172-4.3951 0.86765 4.8163h-7.2884l-6.7293 0.48938-0.80926 0.33692 0.0393-3.2949-0.524 3.4969-0.78703 0.32814-0.13074-0.78187-0.0847 0.8718-0.49093 0.20463-0.51418-3.8804-0.0661 4.1222-0.53434 0.2222-0.83406-1.8692 0.29766 2.0929-0.41031 0.17052-0.71107-1.3487 0.27596 1.5306-45.366 18.902-31.003 12.829-51.316-7.4838-49.178-14.967-36.349 4.2762-28.865-14.967-78.043-5.3454h-49.178l-32.072 4.2762-20.312-11.759-28.865 1.0692-9.1281-16.637-28.726 22.679-39.31 34.774 19.655 43.845 433.92 1.512 741.98 32.515-41.708-59.944-27.151-38.456-106.11-8.6279-107.52 33.354-102.11-35.148c0.65359-1.4713-2.8463-4.8733-3.2815-6.0678l-12.603-6.49-14.537-1.033-3.6365-18.392-4.6716 17.859-5.8462 0.99994 0.0512 0.47956-0.44803 0.0863c-4e-3 0.0116-0.078 0.2253-0.078 0.2253l-14.286 2.5001 0.51676-0.1788c1.7072-2.8526-3.989-31.47-4.8865-33.934zm-29.827 79.945c0.10386 1.1194 0.33778 2.4607 0.87643 3.175 0.28065 0.37216 0.70428 0.71943 1.1958 1.0392h-4.7248l0.05013-0.2067 0.22427-0.98237z" fill="#43273a"/>
   <path d="m312.5 290.85-49.022 187.4-21.152-89.273-21.39 81.772-29.526-124.62-35.223 134.65-20.012-84.462-26.735 102.2-21.816-92.076-28.628 109.44l-0.18552-6.8838-4.7036 10.411a863.82 157.15 0 0 0 -0.7121 -0.0429l0.33228-27.942-4.1553 27.711a863.82 157.15 0 0 0 -1.1183 -0.0677l-2.0407-12.206-1.1663 12.013a863.82 157.15 0 0 0 -0.894 -0.0543l-3.4701-26.181-0.41703 25.947a863.82 157.15 0 0 0 -0.91106 -0.0553l-5.949-13.337 1.8619 13.09a863.82 157.15 0 0 0 -1.6371 -0.0987l-3.3455-6.3459-0.0047-0.16743-0.03876 0.0858-1.0134-1.9224 0.5364 2.9776-2.2593 5.0018a863.82 157.15 0 0 0 -2.5885 -0.15605l0.28009-23.56-3.5037 23.365a863.82 157.15 0 0 0 -2.5104 -0.15142l-1.3002-7.7768-0.74311 7.6533a863.82 157.15 0 0 0 -1.9032 -0.11523l-2.8841-21.761-0.34675 21.566a863.82 157.15 0 0 0 -2.9915 -0.18036l-3.9388-8.8305 1.233 8.6667a863.82 157.15 0 0 0 -3.3962 -0.20516l-2.0143-3.8204 0.67386 3.7393a863.82 157.15 0 0 0 -113.2 -5.0385l-0.12868-4.7687-2.1208 4.6938a863.82 157.15 0 0 0 -1.14 -0.0377l0.1819-15.299-2.2836 15.23a863.82 157.15 0 0 0 -1.1694 -0.0388l-0.97668-5.8415-0.56224 5.7904a863.82 157.15 0 0 0 -0.88212 -0.0294l-1.9053-14.375-0.22996 14.304a863.82 157.15 0 0 0 -1.2066 -0.0398l-2.9709-6.6606 0.93793 6.5929a863.82 157.15 0 0 0 -1.5002 -0.0496l-1.9678-3.7326 0.66456 3.6892a863.82 157.15 0 0 0 -4.3884 -0.14574l-11.312-4.0726-9.8273-11.339-12.099-3.5848 1.5963-5.5893-4.284 4.793-0.92501-0.2744 5.4963-16.757-7.8378 16.064-0.971-0.28784 1.0377-7.3928-2.8629 6.7355-0.70228-0.39531 2.8939-16.53-5.0886 15.296-1.1482-0.64595-0.93121-8.0992-1.1457 6.9313-1.758-0.98909-0.69556-3.8194-0.40773 3.1993-2.6732-1.5038-16.413 4.1682-0.20051-7.4306-3.6375 8.0512 0.23565-19.811-3.1306 20.879-1.7637-10.549-1.032 10.623-2.6691-20.141-0.29972 18.646-4.5698-10.245 1.6376 11.514-4.4333-8.4077 2.0531 11.394-13.402 3.4034-12.018 14.422a863.82 157.15 0 0 0 -10.215 -0.0698 863.82 157.15 0 0 0 -46.749 0.45527l-0.27699-10.287-4.6695 10.335a863.82 157.15 0 0 0 -0.74621 7e-3l0.33176-27.915-4.1909 27.952a863.82 157.15 0 0 0 -1.0289 0.0104l-2.0939-12.526-1.2201 12.558a863.82 157.15 0 0 0 -0.76068 8e-3l-3.5502-26.789-0.43151 26.828a863.82 157.15 0 0 0 -0.47696 5e-3l-6.3686-14.278 2.0371 14.32a863.82 157.15 0 0 0 -1.1059 0.0109l-5.1082-9.6888 1.7518 9.7214a863.82 157.15 0 0 0 -3.3367 0.0326l0.18603-19.92-5.2467 19.969a863.82 157.15 0 0 0 -1.017 0.01l-0.95858-8.9545-2.0815 8.9994a863.82 157.15 0 0 0 -1.7038 0.0455l-1.9249-11.516-1.126 11.597a863.82 157.15 0 0 0 -0.97875 0.0263l-3.4256-25.846-0.41704 25.949a863.82 157.15 0 0 0 -0.87487 0.0233l-5.9852-13.418 1.9234 13.526a863.82 157.15 0 0 0 -1.3968 0.0372l-4.7041-8.9219 1.6226 9.0046a863.82 157.15 0 0 0 -52.774 1.4113c-0.27215-1.2194-0.60847-2.3891-1.0113-3.4949l-39.039-164.77-27.087 103.55-29.081-122.74-28.659 109.56-11.112-46.899-25.028 95.68-22.27-93.994-26.213 100.21-14.389-60.73-26.06 99.622a863.82 157.15 0 0 0 -0.0713 8e-3l-1.0898-6.5205-0.65215 6.7117a863.82 157.15 0 0 0 -1.5622 0.17156l-2.529-19.081-0.31163 19.393a863.82 157.15 0 0 0 -1.9844 0.21757l-3.945-8.8439 1.2997 9.1343a863.82 157.15 0 0 0 -0.91157 0.10028l-18.844-79.531-21.977 84.013a863.82 157.15 0 0 0 -402.41 132.61 863.82 157.15 0 0 0 863.81 157.15 863.82 157.15 0 0 0 863.81 -157.15 863.82 157.15 0 0 0 -262.53 -112.61c17.399-13.296 22.533-40.008 16.673-56.094zm-281.89 225.53 0.29352 1.6299a863.82 157.15 0 0 0 -0.25012 -0.015z" fill="#10122a"/>
   <path d="m-111.72 282.03-6.087 0.29713-7.3536 2.2056-0.14005-0.093-1.104-0.13768-0.87503-6.2468 0.26547 6.1499-0.51986 1.0397-0.22686 0.0682-27.214 46.869-1.3116 0.96171-7e-3 -0.26202-0.18087 0.4-0.75241 0.55137 0.0481-4.0122-0.67024 4.469-0.27286 0.19999-0.33073-1.9802-0.23254 2.3931-0.078 0.0574-0.65267-4.9279-0.078 4.8535-1.1896-2.6665 0.42633 2.9962-1.1539-2.188 0.6165 3.422-1.8304 1.3426 0.0553-4.6586-0.77774 5.1883-0.80615 0.59118-0.30127-1.8009-0.21136 2.1771-0.40101 0.29353-0.81287-6.136-0.11007 6.813-0.12816 0.0941-1.6371-3.6716 0.62735 4.4121-6e-3 5e-3 -1.6981-3.2205 0.71106 3.9445-9.5322 6.9898-11.942 46.204-0.70126 6.7495 14.433-46.505 27.796-21.382 23.787-47.974z" fill="#ffff79" fill-opacity=".13725" opacity=".455"/>
   <path d="m-96.803 227.47c-2.8633 10.787-20.293 31.862-27.503 5.9557-0.48398 11.786-4.1397 19.79-12.127 22.63l1.9456 0.55553c2.017-1.4214 5.1169-3.7786 6.4482-5.7242 2.4806-3.6253 4.2519-12.473 4.2519-12.473s3.6448 7.6575 7.276 8.7876c3.3132 1.0311 7.2523-0.73686 10.016-2.8345 4.91-3.726 9.6382-15.78 9.6382-15.78l0.0553-0.25528c-7.94e-4 -0.28701 5.29e-4 -0.57536-0.0021-0.86145z" fill="#ffff6e" opacity=".329"/>
   <path d="m-96.802 242.71-0.33796 4.3935c0.24576 4.271 0.65682 8.4236 2.3384 11.669l1.355-0.339c-2.3831-4.5297-3.1434-9.9726-3.3554-15.724z" fill="#7c5849" opacity=".497"/>
   <path d="m-511.73 324.22-0.37568 1.4361 27.541 156.55 2.7435-38.411-0.77102 2.9476-28.584-120.64zm57.129 22.789 30.513 170.73 181.43-6.8032 10.583-12.851 46.113-13.607-0.66301-2.1932-0.093-0.0522-16.413 4.1682-0.20051-7.4306-3.6375 8.0512 0.23565-19.811-3.1306 20.879-1.7637-10.549-1.032 10.623-2.6691-20.141-0.29972 18.646-4.5698-10.245 1.6376 11.514-4.4333-8.4078 2.0531 11.394-13.402 3.4034-12.018 14.422a863.82 157.15 0 0 0 -10.215 -0.0698 863.82 157.15 0 0 0 -46.749 0.45527l-0.27699-10.287-4.6695 10.335a863.82 157.15 0 0 0 -0.74621 7e-3l0.33176-27.915-4.1909 27.952a863.82 157.15 0 0 0 -1.0289 0.0103l-2.0939-12.526-1.2201 12.558a863.82 157.15 0 0 0 -0.76068 8e-3l-3.5502-26.789-0.43151 26.828a863.82 157.15 0 0 0 -0.47696 5e-3l-6.3686-14.278 2.0371 14.32a863.82 157.15 0 0 0 -1.1059 0.0108l-5.1082-9.6888 1.7518 9.7214a863.82 157.15 0 0 0 -3.3367 0.0331l0.18603-19.921-5.2467 19.969a863.82 157.15 0 0 0 -1.017 0.0103l-0.95858-8.9545-2.0815 8.9995a863.82 157.15 0 0 0 -1.7038 0.0455l-1.9249-11.516-1.126 11.597a863.82 157.15 0 0 0 -0.97875 0.0265l-3.4256-25.846-0.41704 25.949a863.82 157.15 0 0 0 -0.87487 0.0233l-5.9852-13.418 1.9234 13.526a863.82 157.15 0 0 0 -1.3968 0.0372l-4.7041-8.9219 1.6226 9.0046a863.82 157.15 0 0 0 -52.774 1.4113c-0.27215-1.2194-0.60847-2.389-1.0113-3.4949zm-97.059 40.476-0.0889 0.33952 8.2202 74.727 2.2996-32.775-9.1503-38.62zm-47.053 1.7394 18.899 120.2 1.3622-35.432-17.346-73.211zm-40.821 40.821 14.363 81.643v-24.039l-11.892-50.192z" fill="#ffff89" opacity=".051"/>
   <path d="m191.41 346.13-0.0264 0.0997 0.36018 1.3085zm-1.4909 5.6999-33.682 128.76 1.7544 3.5094 2.2681 2.6458zm52.408 37.147-20.786 79.462 0.32969 4.6964 3.7796 1.1338 16.884-84.42zm-106.15 7.3401-26.565 101.55v7.7732l4.1579 6.4255 23.258-112.16zm-48.552 10.128-28.628 109.44-0.18552-6.8838-4.7036 10.411a863.82 157.15 0 0 0 -0.7121 -0.0429l0.33228-27.942-4.1553 27.712a863.82 157.15 0 0 0 -1.1183 -0.0682l-2.0407-12.206-1.1663 12.013a863.82 157.15 0 0 0 -0.894 -0.0548l-3.4701-26.181-0.41703 25.947a863.82 157.15 0 0 0 -0.91106 -0.0553l-5.949-13.337 1.8619 13.09a863.82 157.15 0 0 0 -1.6371 -0.0987l-3.3455-6.3459-0.0047-0.16743-0.03876 0.0858-1.0134-1.9224 0.5364 2.9776-2.2593 5.0018a863.82 157.15 0 0 0 -2.5885 -0.15605l0.28009-23.56-3.5037 23.365a863.82 157.15 0 0 0 -2.5104 -0.15142l-1.3002-7.7768-0.74311 7.6533a863.82 157.15 0 0 0 -1.9032 -0.11522l-2.884-21.761-0.34675 21.566a863.82 157.15 0 0 0 -2.9915 -0.18034l-3.9388-8.8305 1.233 8.6666a863.82 157.15 0 0 0 -3.3962 -0.20515l-2.0143-3.8204 0.67386 3.7393a863.82 157.15 0 0 0 -23.233 -1.1126l17.302 1.4661 65.768 5.6699 26.458-113.39 1.6547 6.4156zm-57.017 109.94 0.29352 1.6299a863.82 157.15 0 0 0 -0.25012 -0.0151z" fill="#ffff81" opacity=".079"/>
   <path d="m-127.96 427.9-0.0372 0.0217 2.9321 5.4658-6.8714 6.1082-26.727 12.829-5.0307 11.32 6.5355-10.153s9.7553-4.9448 10.29-5.2121c0.53454-0.26725 15.635-6.6818 15.635-6.6818l6.8151-5.3454 0.2005-3.0732z" fill="#ffff79" opacity=".068"/>
   <path d="m-81.194 318.33 0.30696 1.5358 3.0241 4.9134 6.2363 3.9688 8.6935 32.823-7.3742-33.924-8.8599-6.6451 0.18914-1.42zm18.509 44.178 0.31884 1.203-0.14366-0.96428z" fill="#ffff81" opacity=".212"/>
   <path d="m11.372 394.08-11.462 63.536s-0.08812 4.8151 1.2614 6.6048c0.92159 1.2221 2.9853 2.2525 4.7982 2.9729l-3.6375 0.70178 0.87488 1.2247 6.1474-0.53486-0.53433-5.0782-4.2767-9.6217zm-18.197 12.202-2.605 11.697-7.7096 46.455s-0.0074 0.67225 0.05736 1.5358l-2.4283 2.2076v1.4532l0.07493-0.32814 2.3781-3.0251c0.10386 1.1194 0.33778 2.4607 0.87643 3.175 0.28065 0.37214 0.70428 0.71943 1.1958 1.0392h-4.5253v1.0325h3.207l4.8106 1.8712-0.53434-4.2762-1.0692-6.1474 6.3717-55.817zm59.336 34.611-4.6716 17.859-5.8462 0.99994 0.05116 0.47956-0.44804 0.0863c-4e-3 0.0116-0.07803 0.22532-0.07803 0.22532l-10.307 1.8035-2.3466 2.4965 20.045-3.207 2.1384-2.9399 2.0898-14.63zm-53.036 20.137-0.27699 2.4763 0.66973 0.93739z" fill="#ffff54" opacity=".055"/>
   <circle cx="-133.13" cy="-86.893" r="2.8561" fill="#fff" opacity=".902" style="paint-order:markers stroke fill"/>
   <circle cx="-251.06" cy="34.059" r="2.8561" fill="#fff" opacity=".902" style="paint-order:markers stroke fill"/>
   <path d="m284.63 17.988c-11.332 0.0044-20.843 8.5394-22.07 19.805-2.898-3.8294-7.4212-6.0819-12.224-6.0871-6.3485 0.0075-12.037 3.9222-14.313 9.849-1.3879-0.46266-2.8409-0.70032-4.3039-0.70396-7.0894 0.0026-13.009 5.4071-13.655 12.467-0.34581-0.03539-0.6939-0.05401-1.0424-0.05582-4.8703 1.3e-5 -8.8184 3.217-8.8184 7.1854 3e-3 0.66295 0.11794 1.3224 0.3425 1.9596l133.44 1.1238c1.6842-16.659-18.191-22.675-22.406-22.68-1.3767 0.0054-2.7434 0.23393-4.0469 0.67672-1.3312-5.2937-5.4866-9.4136-10.792-10.699-3.6398-7.8224-11.481-12.829-20.108-12.84z" fill="url(#ac)" opacity=".753" style="paint-order:markers stroke fill"/>
   <path d="m-15.51-182.72c-15.588 6e-3 -28.672 11.747-30.359 27.243-3.9865-5.2677-10.209-8.3662-16.815-8.3734-8.733 0.0103-16.559 5.3953-19.688 13.548-1.9092-0.63643-3.9079-0.96335-5.9204-0.96836-9.752 4e-3 -17.895 7.438-18.784 17.149-0.4757-0.0487-0.95452-0.0743-1.434-0.0768-6.6995 2e-5 -12.13 4.4253-12.13 9.8842 4e-3 0.91194 0.16223 1.8191 0.47113 2.6956l183.55 1.5459c2.3169-22.916-25.023-31.191-30.821-31.198-1.8938 7e-3 -3.7738 0.3218-5.5669 0.93089-1.8312-7.282-7.5474-12.949-14.845-14.718-5.0069-10.76-15.792-17.647-27.661-17.662z" fill="#fff" opacity=".284" style="paint-order:markers stroke fill"/>
   <circle cx="-92.684" cy="-24.905" r="1.7222" fill="#fff" opacity=".902" style="paint-order:markers stroke fill"/>
   <circle cx="-514.13" cy="-8.2742" r="2.8561" fill="#fff" opacity=".902" style="paint-order:markers stroke fill"/>
   <circle cx="-632.06" cy="112.68" r="2.8561" fill="#fff" opacity=".902" style="paint-order:markers stroke fill"/>
   <circle cx="-473.68" cy="53.714" r="1.7222" fill="#fff" opacity=".902" style="paint-order:markers stroke fill"/>
   <circle cx="-248.41" cy="186.76" r="1.7222" fill="#fff" opacity=".902" style="paint-order:markers stroke fill"/>
   <circle transform="scale(-1,1)" cx="-156.02" cy="13.6" r="2.8561" fill="#fff" opacity=".902" style="paint-order:markers stroke fill"/>
   <circle transform="scale(-1,1)" cx="-273.95" cy="134.55" r="2.8561" fill="#fff" opacity=".902" style="paint-order:markers stroke fill"/>
   <circle transform="scale(-1,1)" cx="-115.57" cy="75.588" r="1.7222" fill="#fff" opacity=".902" style="paint-order:markers stroke fill"/>
   <circle transform="scale(-1,1)" cx="517.5" cy="90.574" r="2.8561" fill="#fff" opacity=".902" style="paint-order:markers stroke fill"/>
   <circle transform="scale(-1,1)" cx="557.95" cy="152.56" r="1.7222" fill="#fff" opacity=".902" style="paint-order:markers stroke fill"/>
   <circle cx="-.56131" cy="124.78" r="2.8561" fill="#fff" opacity=".902" style="paint-order:markers stroke fill"/>
   <circle cx="39.882" cy="186.77" r="1.7222" fill="#fff" opacity=".902" style="paint-order:markers stroke fill"/>
   <circle cx="-310.59" cy="-110.41" r="2.8561" fill="#fff" opacity=".902" style="paint-order:markers stroke fill"/>
   <circle cx="124.52" cy="-127.52" r="2.8561" fill="#fff" opacity=".902" style="paint-order:markers stroke fill"/>
   <path d="m-435.98 96.775c-18.942 0.0069-34.84 14.274-36.891 33.104-4.8442-6.401-12.405-10.166-20.432-10.175-10.612 0.0134-20.121 6.556-23.924 16.463-2.3199-0.77333-4.7486-1.1706-7.1941-1.1767-11.85 5e-3 -21.744 9.0382-22.825 20.839-0.57804-0.0592-1.1599-0.0902-1.7425-0.0932-8.1408 2e-5 -14.74 5.3773-14.74 12.011 5e-3 1.1081 0.19714 2.2104 0.5725 3.2755l223.04 1.8785c2.8153-27.846-30.406-37.902-37.452-37.91-2.3011 8e-3 -4.5856 0.39102-6.7645 1.1312-2.2252-8.8486-9.171-15.735-18.038-17.884-6.084-13.075-19.19-21.444-33.611-21.462z" fill="url(#ad)" opacity=".902" style="paint-order:markers stroke fill"/>
   <path d="m-150.16 7.8052c-7.887 0.00289-14.507 5.9434-15.361 13.784-2.017-2.6653-5.1652-4.233-8.5077-4.2367-4.4186 0.0056-8.3781 2.7299-9.9617 6.8549-0.96599-0.32201-1.9773-0.48742-2.9955-0.48996-4.9342 0.0019-9.0541 3.7634-9.5039 8.6771-0.24069-0.02462-0.48296-0.03756-0.72554-0.03881-3.3897 5e-6 -6.1376 2.2391-6.1376 5.0011 2e-3 0.46142 0.0821 0.9204 0.23839 1.3639l92.872 0.78218c1.1722-11.595-12.661-15.782-15.594-15.785-0.95817 0.0034-1.9094 0.16281-2.8167 0.471-0.92655-3.6845-3.8187-6.5519-7.511-7.4468-2.5333-5.4444-7.9905-8.929-13.995-8.9366z" fill="#fff" opacity=".486" style="paint-order:markers stroke fill"/>
   <path d="m160.58 202.38c-16.399 6e-3 -30.164 12.358-31.939 28.661-4.194-5.5418-10.74-8.8016-17.69-8.8092-9.1874 0.0116-17.42 5.6761-20.713 14.253-2.0086-0.66955-4.1113-1.0135-6.2285-1.0188-10.26 4e-3 -18.826 7.8251-19.761 18.042-0.50045-0.0512-1.0042-0.0781-1.5086-0.0807-7.0482 1e-5 -12.762 4.6556-12.762 10.399 4e-3 0.95941 0.17068 1.9138 0.49566 2.8359l193.11 1.6264c2.4374-24.109-26.325-32.815-32.425-32.822-1.9923 7e-3 -3.9702 0.33853-5.8566 0.97933-1.9265-7.661-7.9402-13.623-15.617-15.484-5.2674-11.32-16.614-18.566-29.1-18.582z" fill="url(#ab)" opacity=".902" style="paint-order:markers stroke fill"/>
   <circle transform="rotate(90)" cx="228.35" cy="114.02" r="95.13" fill="url(#aa)" opacity=".071918" style="paint-order:markers stroke fill"/>
   <circle transform="rotate(90)" cx="228.35" cy="114.02" r="128.39" fill="url(#z)" opacity=".034" style="paint-order:markers stroke fill"/>
   <circle transform="rotate(90)" cx="228.35" cy="114.02" r="173.75" fill="url(#y)" opacity=".034" style="paint-order:markers stroke fill"/>
   <circle cx="-114.02" cy="228.35" r="228.18" fill="url(#x)" opacity=".051" style="paint-order:markers stroke fill"/>
   <circle cx="-114.02" cy="228.35" r="297.72" fill="url(#w)" opacity=".045" style="paint-order:markers stroke fill"/>
   <circle cx="-114.02" cy="228.35" r="371.81" fill="url(#v)" opacity=".038" style="paint-order:markers stroke fill"/>
   <circle cx="-114.02" cy="228.35" r="485.2" fill="url(#u)" opacity=".024" style="paint-order:markers stroke fill"/>
   <circle cx="-396.12" cy="-191.66" r="2.8561" fill="#fff" opacity=".902" style="paint-order:markers stroke fill"/>
   <circle cx="-114.02" cy="228.35" r="597.08" fill="url(#ae)" opacity=".024" style="paint-order:markers stroke fill"/>
  </g>
  <g transform="matrix(.24748 0 0 .24748 125.9 109.97)" clip-path="url(#s)">
   <rect x="-1321.4" y="-426.82" width="2277.1" height="1206" fill="url(#t)" style="paint-order:markers stroke fill"/>
   <path d="m-523.12 333.29 155.73-51.405 84.667-18.143 39.31 12.095 84.667 13.607 98.274 25.702 74.083 1.5119 143.63-30.238 105.83 27.214 89.202 31.75 102.81 34.774 1.5119 90.714l-949.48-28.726-78.619-18.143-240.39-7.5595 108.86-25.702 95.25-37.798z" fill="#cf5261" opacity=".616"/>
   <path d="m81.643 405.86 86.179-15.119 34.774-22.679 101.3-15.119 122.46-39.31 25.702 54.429 3.0238 98.274-381-22.679z" fill="#963b4a"/>
   <path d="m-562.34 211.47-55.592 25.658-211.68 57.73-4.2762 305.76 532.4 12.829 335.69 6.4141-19.243-117.6-29.934-51.316-151.81-51.316-58.366-20.126-1.2351-7.937-1.7043 6.9236-0.70125-0.24183-8.7333-0.64698-1.4226-11.38-0.9679 11.203-24.207-1.7927-2.0867-8.6082s0.0591 4.2553 0.11679 8.462l-3.315-0.24545-2.4143-17.304-0.95808 17.054-4.0794-0.30231-2.1792-11.674-0.14727 11.501-7.336-0.54311-55.592-40.625-4.9-3.4029-0.73279-7.6212-0.80254 6.5552-4.3759-3.0386-2.3812-18.258-1.2304 15.749-7.6068-5.2824-0.99013-11.223-0.96996 9.8619-3.5657-2.4763v-18.725l-3.1688 16.525-46.249-32.118-36.349-14.967-49.177-53.454z" fill="#963b4a"/>
   <path d="m-562.34 211.47-0.0967 0.0444 54.432 8.3747 15.119 10.583 24.191 30.238 18.143 18.143v-9.0718l27.214 15.119 42.333 28.726 66.524 55.94 30.238 12.095 110.37 21.167-5.7134-7.6176-45.56-15.711-1.2351-7.937-1.7043 6.9236-0.70125-0.24183-8.7333-0.64698-1.4226-11.38-0.9679 11.203-24.207-1.7927-2.0867-8.6082s0.0591 4.2553 0.11679 8.462l-3.315-0.24545-2.4143-17.304-0.95808 17.054-4.0794-0.30231-2.1792-11.674-0.14727 11.501-7.336-0.54311-55.592-40.625-4.9-3.4029-0.73279-7.6212-0.80254 6.5552-4.3759-3.0386-2.3812-18.258-1.2304 15.749-7.6068-5.2824-0.99013-11.223-0.96996 9.8619-3.5657-2.4763v-18.725l-3.1688 16.525-46.249-32.118-36.349-14.967-49.177-53.454z" fill="#fff" opacity=".031"/>
   <path d="m108.41 356.38-3.6706 32.866-4.0928-1.048-4.7987-27.008-2.8422 25.051-39.816-10.197-39.583 6.9851-1.5849-10.664-1.2263 11.16-3.7667 0.66456-2.758-20.912-1.7017 21.699-3.7476 0.66146-2.5688-16.48-0.60823 17.041-19.563 3.452-60.476 21.167-105.83 1.5121-61.988 16.631-23.599 14.749-3.7543-18.96-1.5219 22.258-3.3967 2.1229-2.5652-38.012-4.6468 42.519-1.7859 1.1162-3.4561-17.176-0.10232 19.4-2.2908 1.432-4.5558-29.384-2.1663 33.938-4.8979 3.3776-3.3595-25.556s-0.90001 20.928-1.3689 28.817l-72.604 50.071 873.88 16.631-9.0713-83.155-107.35-21.167-111.88-1.5115-80.131-22.679-24.223-6.2038-3.9083-17.415-1.8764 15.934-5.4854-1.4051-3.8638-16.934-1.8278 15.477-3.0282-0.77565-5.5671-35.281-3.6757 32.914-2.4515-0.62788-4.2964-21.596-2.2975 19.907-0.69246-0.17724z" fill="#783545"/>
   <path d="m-542.81 338.18-10.247 60.549-4.0504-0.85265-3.6266-34.046-5.7805 32.066-4.438-0.93429-3.145-29.528-5.3402 29.623-8.6093 0.53795-3.1559-29.627-5.4374 30.164-24.287 1.5183-40.821-24.191-92.226-16.631-3.0236 149.68h122.46l344.71-10.583-63.5-19.655-43.845-25.702-51.405-12.095-54.428-25.702-19.908-5.8989-3.6169-33.953-5.627 31.214-4.1879-1.2407z" fill="#783545"/>
   <circle cx="-114.02" cy="228.35" r="66.403" fill="#fff" style="paint-order:markers stroke fill"/>
   <path d="m-96.803 227.47c-2.8633 10.787-20.293 31.862-27.503 5.9557-0.48398 11.786-4.1397 19.79-12.127 22.63l6.0637 1.7322 2.3818 2.1658 0.65008 8.9871-6.8218 0.10851-0.32505 4.9806 3.6814 0.21653v1.6242l1.1912-0.10853 2.2743 2.3823 0.31006 5.7893-0.87333-1.741 0.76791 2.2557-0.20774 0.41495-0.49092-0.65577 0.3638 0.91054-0.0651 0.12972-0.0775 0.0233-1.5715-2.2552 1.2712 2.5606-0.0925 0.15865-1.2619-1.0087 1.0175 1.4304-0.0506 0.0863-1.1534-0.80357 0.92294 1.201-26.445 45.545-1.3116 0.96171-7e-3 -0.26202-0.18087 0.4-0.75241 0.55136 0.0481-4.0121-0.67024 4.469-0.27286 0.2-0.33073-1.9802-0.23254 2.3931-0.078 0.0574-0.65267-4.9279-0.078 4.8535-1.1896-2.6665 0.42633 2.9962-1.1539-2.188 0.6165 3.422-1.8304 1.3426 0.0553-4.6586-0.77774 5.1883-0.80615 0.59119-0.30127-1.8009-0.21136 2.1771-0.40101 0.29353-0.81287-6.1361-0.11007 6.813-0.12816 0.0941-1.6371-3.6716 0.62735 4.4121-6e-3 5e-3 -1.6981-3.2205 0.71106 3.9445-9.5322 6.9898-35.659 137.97-24.19 12.095-48.381-4.5356-44.197-20.625 0.39222-0.80097-0.78753 0.6165-0.11732-0.0548 1.2697-2.3575-1.6077 2.1998-0.12247-0.0573 0.3643-1.1121-0.65214 0.99738-0.0894-0.0244 0.91107-2.4924-1.2981 2.3869-0.031-9e-3 0.10025-1.602-0.5271 1.4857-0.0558-0.0151-3e-3 -1.2526-0.36174 1.1529-0.63561-0.17312 0.78497-1.6035-1.7219 1.3477-0.12866-0.0351 2.544-4.7232-3.3006 4.517-0.12195-0.0331 0.82786-2.5275-1.5276 2.3368-0.0532-0.0151 1.9032-5.2069-2.5337 4.6571 0.19947-3.1828-1.1054 3.1156-8e-3 -2.7016-0.83767 2.6696-0.88884-0.24235 0.16174-0.33023-0.35449 0.27752-0.34623-0.0946 1.0656-1.9782-1.3823 1.8919-0.24392-0.0667 0.26046-0.79529-0.48059 0.73536-0.15814-0.0429 0.80875-2.2112-1.1524 2.1172-0.15812-0.0429 0.0811-1.2981-0.42685 1.2035-0.15658-0.0424-3e-3 -0.94361-0.27234 0.86868-1.3958-0.38086-0.11369-2.3146c4.589 0.17317 5.3471-2.9527 5.534-4.9806-2.1506-11.196-4.8693-20.404-6.3639-33.896-1.8659 13.009-5.4526 22.576-8.3013 33.619-0.86554 5.4007 3.5 4.7986 5.6725 5.811l-0.0145 0.78237-13.383-3.6494 0.49353-0.85108-1.0392 0.70225-0.22064-0.0605 1.9265-3.0437-2.45 2.9011-0.1509-0.0414 0.64855-1.5922-1.1121 1.4656-0.0739-0.0201 1.5616-3.4907-2.0448 3.2003 0.30282-2.2645-0.94671 2.1714 0.13023-1.9317-0.72501 1.8459-1.4134-0.3855-0.16809-5.9423c8.8653 0.33451 11.653-5.704 10.502-10.945-4.1545-21.63-9.4069-39.416-12.294-65.481-3.6046 25.13-10.533 43.614-16.036 64.946-1.672 10.433 6.7611 9.2692 10.958 11.225l-0.0636 3.4329-0.37309 0.72398-0.15451-0.0424 0.17208-2.6985-0.52916 2.6014-0.20672-0.0563-0.1111-0.97305-0.13592 0.90588-0.17415-0.0476-0.19015-2.3735-0.15505 2.2789-0.31779-0.0863-0.35502-0.92138 0.076 0.84489-0.41187-0.11213-0.12557-0.27077 0.031 0.24495-19.275-5.2565-0.10594-2.1534c8.315 0.31377 9.6886-5.3498 10.027-9.0242-3.8966-20.287-8.8228-36.97-11.531-61.417-3.3809 23.571-9.8792 40.906-15.041 60.915-0.68609 4.2812 0.44199 6.4809 2.2578 7.754l-5.1289-1.3989-40.821 7.5592-31.75-9.0713-58.964 12.095-9.0713-9.0713-42.334 16.63s-66.524 3.0241-72.571 3.0241c-6.0476 0-7.5592 96.762-7.5592 96.762l1044.7 12.095-55.94-27.214-93.738-21.167-121.99-46.976-35.919-4.9026-18.402 2.8722-62.829-36.716-24.558-61.317-5.7423-7.83 2.5373-2.0314-3.451 0.78549-0.26355-0.35967 7.5696-5.5919-8.3364 4.5465-0.30127-0.41135 2.7456-2.9058-3.361 2.0666-0.22686-0.30903 6.4068-6.3366-7.1918 5.2664-0.24908-0.34005 2.3663-4.3-1.2128 1.2227 0.69867-1.372-2.6257 1.9895 0.94774-2.0262-1.0966 1.1901 4.1532-7.4285-5.6286 7.4543-0.38706-0.5276 1.17-3.3905-1.7544 2.5937-0.39377-0.53692 2.8272-7.3732-3.5822 6.3438-0.95653-1.3043 0.18759-2.3859-0.65267 1.7518-0.82734-1.1286-7.5592-34.774-8.8599-6.6451 0.18913-1.42-3.0737-1.7369-0.93534-7.6176h-2.8531l-1.1994-2.9125 0.31058-4.0365h-1.9724l-1.6635-4.04-0.10594-2.6417-0.96377 0.0439-1.5513-3.7672-8.0083-4.9284 0.56741-0.36793-1.249-3.3714 0.75809-6.9298 3.6814-3.4649 2.1658-0.43307 0.43305-4.7646-5.4136 0.21653 0.75757-8.0124 1.0831-1.1911 4.7641-1.1911c-4.4462-8.451-3.262-20.069-3.3569-30.968zm-29.578 31.144 1.6464 0.38293-1.6846 2.3735v-1.9523zm3.1585 0.36484 5.9009 0.97462 2.1658 3.7357-0.16278 5.0348-10.719 0.32505-0.43305-6.0637zm16.35 1.6242-3.3569 5.6307v-3.2484l2.4908-2.2738zm4.3258 0.3421 1.8459 2.1482-0.64957 5.7929-5.0348-0.0543zm-9.848 0.95705 0.43304 0.81235-0.3793 5.8467-1.6237-0.16227 0.0538-4.4933zm-11.067 13.812h7.6564l-0.0734 6.0379-2.8949 0.86815-0.0134-0.49919-0.26303 0.5824-0.37 0.1111 0.0331-2.7678-0.43305 2.8877-0.24029 0.0718-0.19017-1.1374-0.11938 1.2304-0.14211 0.0424-0.39119-2.9517-0.0496 3.084-0.0832 0.0254-0.0103-0.0233 0.0253-9e-3 -0.0377-1.4134-0.31317 0.69247-0.3116-0.69813 0.0248-2.0686-0.41703 2.7802-0.17932-0.34004 0.12558 0.69765-0.0816 0.54467-0.31109-1.8609-0.18191 1.8738-0.47077-3.5522-0.0532 3.2887-0.80564-1.8071 0.28887 2.0309-0.78186-1.4826 0.40927 2.2706-1.0418 0.31266-0.14005-0.093-0.22944-6.2017zm10.061 0.81441 2.7564 2.1435 0.23151 3.4799-2.2283-1.3715-0.63613 0.19069zm10.858 1.7244-0.64957 4.331-1.4077 0.10853zm-19.146 3.9419 0.11369 0.79891-0.12609 0.27855h-5.3e-4zm0.17622 1.2382 1e-3 8e-3 -0.0868 0.0259-3e-3 -5e-3z" fill="#5c2f40"/>
   <path d="m12.769 386.33-12.859 71.283s-0.08812 4.8151 1.2614 6.6048c0.92159 1.2221 2.9853 2.2525 4.7982 2.9729l-6.8848 1.3286c0.8268-1.9625 1.685 0.3383 1.109-1.2428l-7.2905-63.359-10.043 60.515s-0.0074 0.67226 0.05736 1.5358l-3.6106 3.2825 0.67024-2.4262-2.2195 2.9425 1.789-6.8983-1.5999 3.2613-1.3255 2.7074-0.6196-1.5162-2.1689-2.512 1.7208 3.9558-0.09405 1.725h-0.44235l-0.23565-0.49816-0.59066 0.49816h-0.38447l-0.12299-4.2953-0.63924 4.2953h-0.38654l-0.36587-2.188-0.21239 2.188h-0.28525l-0.69712-5.2612-0.08475 5.2612h-0.3514l-1.1364-2.5487 0.36225 2.5487h-0.4501l-0.81494-1.5456 0.27854 1.5456h-2.4774l-7.4833-18.174-21.382-5.3454h-7.2962l0.15141-0.38034-0.41548 0.38034h-2.2557l3.6473-8.2295-5.0927 8.2295h-0.49868l-0.57051-0.78962 0.62425-2.5533-1.0661 1.9415-0.79323-1.0987 2.0867-7.4368-2.8562 6.3712-11.323-15.678-24.589-5.3454-2.959 2.6303-0.7028-1.9802-0.31988 2.8892-0.92087 0.81854-3.1972-10.255 1.9027 11.406-0.49557 0.44029-2.3523-4.5217 1.2201 5.5283-0.21755 0.19328-5.177-10.831 3.5378 11.518-4.8529-5.3837 3.3042 6.7484-4.4023-4.2819 3.2608 6.0787-6.8714 6.1081-26.727 12.829-8.5524 19.243-0.66921 0.061-0.0879-3.2437-1.5317 3.391-0.36018 0.0325 0.11368-9.571-1.4537 9.693-0.38137 0.0346-0.72347-4.3274-0.43046 4.4323-0.25425 0.0233-1.25-9.4309-0.15658 9.7472-2.389-5.3558 0.85576 6.0188-2.3172-4.3951 0.86765 4.8163h-7.2884l-6.7293 0.48938-0.80926 0.33692 0.0393-3.2949-0.524 3.4969-0.78703 0.32814-0.13074-0.78187-0.0847 0.8718-0.49093 0.20463-0.51418-3.8804-0.0661 4.1222-0.53434 0.2222-0.83406-1.8692 0.29766 2.0929-0.41031 0.17052-0.71107-1.3487 0.27596 1.5306-45.366 18.902-31.003 12.829-51.316-7.4838-49.178-14.967-36.349 4.2762-28.865-14.967-78.043-5.3454h-49.178l-32.072 4.2762-20.312-11.759-28.865 1.0692-9.1281-16.637-28.726 22.679-39.31 34.774 19.655 43.845 433.92 1.512 741.98 32.515-41.708-59.944-27.151-38.456-106.11-8.6279-107.52 33.354-102.11-35.148c0.65359-1.4713-2.8463-4.8733-3.2815-6.0678l-12.603-6.49-14.537-1.033-3.6365-18.392-4.6716 17.859-5.8462 0.99994 0.0512 0.47956-0.44803 0.0863c-4e-3 0.0116-0.078 0.2253-0.078 0.2253l-14.286 2.5001 0.51676-0.1788c1.7072-2.8526-3.989-31.47-4.8865-33.934zm-29.827 79.945c0.10386 1.1194 0.33778 2.4607 0.87643 3.175 0.28065 0.37216 0.70428 0.71943 1.1958 1.0392h-4.7248l0.05013-0.2067 0.22427-0.98237z" fill="#43273a"/>
   <path d="m312.5 290.85-49.022 187.4-21.152-89.273-21.39 81.772-29.526-124.62-35.223 134.65-20.012-84.462-26.735 102.2-21.816-92.076-28.628 109.44l-0.18552-6.8838-4.7036 10.411a863.82 157.15 0 0 0 -0.7121 -0.0429l0.33228-27.942-4.1553 27.711a863.82 157.15 0 0 0 -1.1183 -0.0677l-2.0407-12.206-1.1663 12.013a863.82 157.15 0 0 0 -0.894 -0.0543l-3.4701-26.181-0.41703 25.947a863.82 157.15 0 0 0 -0.91106 -0.0553l-5.949-13.337 1.8619 13.09a863.82 157.15 0 0 0 -1.6371 -0.0987l-3.3455-6.3459-0.0047-0.16743-0.03876 0.0858-1.0134-1.9224 0.5364 2.9776-2.2593 5.0018a863.82 157.15 0 0 0 -2.5885 -0.15605l0.28009-23.56-3.5037 23.365a863.82 157.15 0 0 0 -2.5104 -0.15142l-1.3002-7.7768-0.74311 7.6533a863.82 157.15 0 0 0 -1.9032 -0.11523l-2.8841-21.761-0.34675 21.566a863.82 157.15 0 0 0 -2.9915 -0.18036l-3.9388-8.8305 1.233 8.6667a863.82 157.15 0 0 0 -3.3962 -0.20516l-2.0143-3.8204 0.67386 3.7393a863.82 157.15 0 0 0 -113.2 -5.0385l-0.12868-4.7687-2.1208 4.6938a863.82 157.15 0 0 0 -1.14 -0.0377l0.1819-15.299-2.2836 15.23a863.82 157.15 0 0 0 -1.1694 -0.0388l-0.97668-5.8415-0.56224 5.7904a863.82 157.15 0 0 0 -0.88212 -0.0294l-1.9053-14.375-0.22996 14.304a863.82 157.15 0 0 0 -1.2066 -0.0398l-2.9709-6.6606 0.93793 6.5929a863.82 157.15 0 0 0 -1.5002 -0.0496l-1.9678-3.7326 0.66456 3.6892a863.82 157.15 0 0 0 -4.3884 -0.14574l-11.312-4.0726-9.8273-11.339-12.099-3.5848 1.5963-5.5893-4.284 4.793-0.92501-0.2744 5.4963-16.757-7.8378 16.064-0.971-0.28784 1.0377-7.3928-2.8629 6.7355-0.70228-0.39531 2.8939-16.53-5.0886 15.296-1.1482-0.64595-0.93121-8.0992-1.1457 6.9313-1.758-0.98909-0.69556-3.8194-0.40773 3.1993-2.6732-1.5038-16.413 4.1682-0.20051-7.4306-3.6375 8.0512 0.23565-19.811-3.1306 20.879-1.7637-10.549-1.032 10.623-2.6691-20.141-0.29972 18.646-4.5698-10.245 1.6376 11.514-4.4333-8.4077 2.0531 11.394-13.402 3.4034-12.018 14.422a863.82 157.15 0 0 0 -10.215 -0.0698 863.82 157.15 0 0 0 -46.749 0.45527l-0.27699-10.287-4.6695 10.335a863.82 157.15 0 0 0 -0.74621 7e-3l0.33176-27.915-4.1909 27.952a863.82 157.15 0 0 0 -1.0289 0.0104l-2.0939-12.526-1.2201 12.558a863.82 157.15 0 0 0 -0.76068 8e-3l-3.5502-26.789-0.43151 26.828a863.82 157.15 0 0 0 -0.47696 5e-3l-6.3686-14.278 2.0371 14.32a863.82 157.15 0 0 0 -1.1059 0.0109l-5.1082-9.6888 1.7518 9.7214a863.82 157.15 0 0 0 -3.3367 0.0326l0.18603-19.92-5.2467 19.969a863.82 157.15 0 0 0 -1.017 0.01l-0.95858-8.9545-2.0815 8.9994a863.82 157.15 0 0 0 -1.7038 0.0455l-1.9249-11.516-1.126 11.597a863.82 157.15 0 0 0 -0.97875 0.0263l-3.4256-25.846-0.41704 25.949a863.82 157.15 0 0 0 -0.87487 0.0233l-5.9852-13.418 1.9234 13.526a863.82 157.15 0 0 0 -1.3968 0.0372l-4.7041-8.9219 1.6226 9.0046a863.82 157.15 0 0 0 -52.774 1.4113c-0.27215-1.2194-0.60847-2.3891-1.0113-3.4949l-39.039-164.77-27.087 103.55-29.081-122.74-28.659 109.56-11.112-46.899-25.028 95.68-22.27-93.994-26.213 100.21-14.389-60.73-26.06 99.622a863.82 157.15 0 0 0 -0.0713 8e-3l-1.0898-6.5205-0.65215 6.7117a863.82 157.15 0 0 0 -1.5622 0.17156l-2.529-19.081-0.31163 19.393a863.82 157.15 0 0 0 -1.9844 0.21757l-3.945-8.8439 1.2997 9.1343a863.82 157.15 0 0 0 -0.91157 0.10028l-18.844-79.531-21.977 84.013a863.82 157.15 0 0 0 -402.41 132.61 863.82 157.15 0 0 0 863.81 157.15 863.82 157.15 0 0 0 863.81 -157.15 863.82 157.15 0 0 0 -262.53 -112.61c17.399-13.296 22.533-40.008 16.673-56.094zm-281.89 225.53 0.29352 1.6299a863.82 157.15 0 0 0 -0.25012 -0.015z" fill="#141526"/>
   <path d="m-111.72 282.03-6.087 0.29713-7.3536 2.2056-0.14005-0.093-1.104-0.13768-0.87503-6.2468 0.26547 6.1499-0.51986 1.0397-0.22686 0.0682-27.214 46.869-1.3116 0.96171-7e-3 -0.26202-0.18087 0.4-0.75241 0.55137 0.0481-4.0122-0.67024 4.469-0.27286 0.19999-0.33073-1.9802-0.23254 2.3931-0.078 0.0574-0.65267-4.9279-0.078 4.8535-1.1896-2.6665 0.42633 2.9962-1.1539-2.188 0.6165 3.422-1.8304 1.3426 0.0553-4.6586-0.77774 5.1883-0.80615 0.59118-0.30127-1.8009-0.21136 2.1771-0.40101 0.29353-0.81287-6.136-0.11007 6.813-0.12816 0.0941-1.6371-3.6716 0.62735 4.4121-6e-3 5e-3 -1.6981-3.2205 0.71106 3.9445-9.5322 6.9898-11.942 46.204-0.70126 6.7495 14.433-46.505 27.796-21.382 23.787-47.974z" fill="#ffff79" fill-opacity=".13725" opacity=".455"/>
   <path d="m-96.803 227.47c-2.8633 10.787-20.293 31.862-27.503 5.9557-0.48398 11.786-4.1397 19.79-12.127 22.63l1.9456 0.55553c2.017-1.4214 5.1169-3.7786 6.4482-5.7242 2.4806-3.6253 4.2519-12.473 4.2519-12.473s3.6448 7.6575 7.276 8.7876c3.3132 1.0311 7.2523-0.73686 10.016-2.8345 4.91-3.726 9.6382-15.78 9.6382-15.78l0.0553-0.25528c-7.94e-4 -0.28701 5.29e-4 -0.57536-0.0021-0.86145z" fill="#ffff6e" opacity=".329"/>
   <path d="m-96.802 242.71-0.33796 4.3935c0.24576 4.271 0.65682 8.4236 2.3384 11.669l1.355-0.339c-2.3831-4.5297-3.1434-9.9726-3.3554-15.724z" fill="#7c5849" opacity=".497"/>
   <path d="m-511.73 324.22-0.37568 1.4361 27.541 156.55 2.7435-38.411-0.77102 2.9476-28.584-120.64zm57.129 22.789 30.513 170.73 181.43-6.8032 10.583-12.851 46.113-13.607-0.66301-2.1932-0.093-0.0522-16.413 4.1682-0.20051-7.4306-3.6375 8.0512 0.23565-19.811-3.1306 20.879-1.7637-10.549-1.032 10.623-2.6691-20.141-0.29972 18.646-4.5698-10.245 1.6376 11.514-4.4333-8.4078 2.0531 11.394-13.402 3.4034-12.018 14.422a863.82 157.15 0 0 0 -10.215 -0.0698 863.82 157.15 0 0 0 -46.749 0.45527l-0.27699-10.287-4.6695 10.335a863.82 157.15 0 0 0 -0.74621 7e-3l0.33176-27.915-4.1909 27.952a863.82 157.15 0 0 0 -1.0289 0.0103l-2.0939-12.526-1.2201 12.558a863.82 157.15 0 0 0 -0.76068 8e-3l-3.5502-26.789-0.43151 26.828a863.82 157.15 0 0 0 -0.47696 5e-3l-6.3686-14.278 2.0371 14.32a863.82 157.15 0 0 0 -1.1059 0.0108l-5.1082-9.6888 1.7518 9.7214a863.82 157.15 0 0 0 -3.3367 0.0331l0.18603-19.921-5.2467 19.969a863.82 157.15 0 0 0 -1.017 0.0103l-0.95858-8.9545-2.0815 8.9995a863.82 157.15 0 0 0 -1.7038 0.0455l-1.9249-11.516-1.126 11.597a863.82 157.15 0 0 0 -0.97875 0.0265l-3.4256-25.846-0.41704 25.949a863.82 157.15 0 0 0 -0.87487 0.0233l-5.9852-13.418 1.9234 13.526a863.82 157.15 0 0 0 -1.3968 0.0372l-4.7041-8.9219 1.6226 9.0046a863.82 157.15 0 0 0 -52.774 1.4113c-0.27215-1.2194-0.60847-2.389-1.0113-3.4949zm-97.059 40.476-0.0889 0.33952 8.2202 74.727 2.2996-32.775-9.1503-38.62zm-47.053 1.7394 18.899 120.2 1.3622-35.432-17.346-73.211zm-40.821 40.821 14.363 81.643v-24.039l-11.892-50.192z" fill="#ffff89" opacity=".051"/>
   <path d="m191.41 346.13-0.0264 0.0997 0.36018 1.3085zm-1.4909 5.6999-33.682 128.76 1.7544 3.5094 2.2681 2.6458zm52.408 37.147-20.786 79.462 0.32969 4.6964 3.7796 1.1338 16.884-84.42zm-106.15 7.3401-26.565 101.55v7.7732l4.1579 6.4255 23.258-112.16zm-48.552 10.128-28.628 109.44-0.18552-6.8838-4.7036 10.411a863.82 157.15 0 0 0 -0.7121 -0.0429l0.33228-27.942-4.1553 27.712a863.82 157.15 0 0 0 -1.1183 -0.0682l-2.0407-12.206-1.1663 12.013a863.82 157.15 0 0 0 -0.894 -0.0548l-3.4701-26.181-0.41703 25.947a863.82 157.15 0 0 0 -0.91106 -0.0553l-5.949-13.337 1.8619 13.09a863.82 157.15 0 0 0 -1.6371 -0.0987l-3.3455-6.3459-0.0047-0.16743-0.03876 0.0858-1.0134-1.9224 0.5364 2.9776-2.2593 5.0018a863.82 157.15 0 0 0 -2.5885 -0.15605l0.28009-23.56-3.5037 23.365a863.82 157.15 0 0 0 -2.5104 -0.15142l-1.3002-7.7768-0.74311 7.6533a863.82 157.15 0 0 0 -1.9032 -0.11522l-2.884-21.761-0.34675 21.566a863.82 157.15 0 0 0 -2.9915 -0.18034l-3.9388-8.8305 1.233 8.6666a863.82 157.15 0 0 0 -3.3962 -0.20515l-2.0143-3.8204 0.67386 3.7393a863.82 157.15 0 0 0 -23.233 -1.1126l17.302 1.4661 65.768 5.6699 26.458-113.39 1.6547 6.4156zm-57.017 109.94 0.29352 1.6299a863.82 157.15 0 0 0 -0.25012 -0.0151z" fill="#ffff81" opacity=".079"/>
   <path d="m-127.96 427.9-0.0372 0.0217 2.9321 5.4658-6.8714 6.1082-26.727 12.829-5.0307 11.32 6.5355-10.153s9.7553-4.9448 10.29-5.2121c0.53454-0.26725 15.635-6.6818 15.635-6.6818l6.8151-5.3454 0.2005-3.0732z" fill="#ffff79" opacity=".068"/>
   <path d="m-81.194 318.33 0.30696 1.5358 3.0241 4.9134 6.2363 3.9688 8.6935 32.823-7.3742-33.924-8.8599-6.6451 0.18914-1.42zm18.509 44.178 0.31884 1.203-0.14366-0.96428z" fill="#ffff81" opacity=".212"/>
   <path d="m11.372 394.08-11.462 63.536s-0.08812 4.8151 1.2614 6.6048c0.92159 1.2221 2.9853 2.2525 4.7982 2.9729l-3.6375 0.70178 0.87488 1.2247 6.1474-0.53486-0.53433-5.0782-4.2767-9.6217zm-18.197 12.202-2.605 11.697-7.7096 46.455s-0.0074 0.67225 0.05736 1.5358l-2.4283 2.2076v1.4532l0.07493-0.32814 2.3781-3.0251c0.10386 1.1194 0.33778 2.4607 0.87643 3.175 0.28065 0.37214 0.70428 0.71943 1.1958 1.0392h-4.5253v1.0325h3.207l4.8106 1.8712-0.53434-4.2762-1.0692-6.1474 6.3717-55.817zm59.336 34.611-4.6716 17.859-5.8462 0.99994 0.05116 0.47956-0.44804 0.0863c-4e-3 0.0116-0.07803 0.22532-0.07803 0.22532l-10.307 1.8035-2.3466 2.4965 20.045-3.207 2.1384-2.9399 2.0898-14.63zm-53.036 20.137-0.27699 2.4763 0.66973 0.93739z" fill="#ffff54" opacity=".055"/>
   <circle cx="-133.13" cy="-86.893" r="2.8561" fill="#fff" opacity=".902" style="paint-order:markers stroke fill"/>
   <circle cx="-251.06" cy="34.059" r="2.8561" fill="#fff" opacity=".902" style="paint-order:markers stroke fill"/>
   <path d="m284.63 17.988c-11.332 0.0044-20.843 8.5394-22.07 19.805-2.898-3.8294-7.4212-6.0819-12.224-6.0871-6.3485 0.0075-12.037 3.9222-14.313 9.849-1.3879-0.46266-2.8409-0.70032-4.3039-0.70396-7.0894 0.0026-13.009 5.4071-13.655 12.467-0.34581-0.03539-0.6939-0.05401-1.0424-0.05582-4.8703 1.3e-5 -8.8184 3.217-8.8184 7.1854 3e-3 0.66295 0.11794 1.3224 0.3425 1.9596l133.44 1.1238c1.6842-16.659-18.191-22.675-22.406-22.68-1.3767 0.0054-2.7434 0.23393-4.0469 0.67672-1.3312-5.2937-5.4866-9.4136-10.792-10.699-3.6398-7.8224-11.481-12.829-20.108-12.84z" fill="url(#ac)" opacity=".753" style="paint-order:markers stroke fill"/>
   <path d="m-15.51-182.72c-15.588 6e-3 -28.672 11.747-30.359 27.243-3.9865-5.2677-10.209-8.3662-16.815-8.3734-8.733 0.0103-16.559 5.3953-19.688 13.548-1.9092-0.63643-3.9079-0.96335-5.9204-0.96836-9.752 4e-3 -17.895 7.438-18.784 17.149-0.4757-0.0487-0.95452-0.0743-1.434-0.0768-6.6995 2e-5 -12.13 4.4253-12.13 9.8842 4e-3 0.91194 0.16223 1.8191 0.47113 2.6956l183.55 1.5459c2.3169-22.916-25.023-31.191-30.821-31.198-1.8938 7e-3 -3.7738 0.3218-5.5669 0.93089-1.8312-7.282-7.5474-12.949-14.845-14.718-5.0069-10.76-15.792-17.647-27.661-17.662z" fill="#fff" opacity=".284" style="paint-order:markers stroke fill"/>
   <circle cx="-92.684" cy="-24.905" r="1.7222" fill="#fff" opacity=".902" style="paint-order:markers stroke fill"/>
   <circle cx="-514.13" cy="-8.2742" r="2.8561" fill="#fff" opacity=".902" style="paint-order:markers stroke fill"/>
   <circle cx="-632.06" cy="112.68" r="2.8561" fill="#fff" opacity=".902" style="paint-order:markers stroke fill"/>
   <circle cx="-473.68" cy="53.714" r="1.7222" fill="#fff" opacity=".902" style="paint-order:markers stroke fill"/>
   <circle cx="-248.41" cy="186.76" r="1.7222" fill="#fff" opacity=".902" style="paint-order:markers stroke fill"/>
   <circle transform="scale(-1,1)" cx="-156.02" cy="13.6" r="2.8561" fill="#fff" opacity=".902" style="paint-order:markers stroke fill"/>
   <circle transform="scale(-1,1)" cx="-273.95" cy="134.55" r="2.8561" fill="#fff" opacity=".902" style="paint-order:markers stroke fill"/>
   <circle transform="scale(-1,1)" cx="-115.57" cy="75.588" r="1.7222" fill="#fff" opacity=".902" style="paint-order:markers stroke fill"/>
   <circle transform="scale(-1,1)" cx="517.5" cy="90.574" r="2.8561" fill="#fff" opacity=".902" style="paint-order:markers stroke fill"/>
   <circle transform="scale(-1,1)" cx="557.95" cy="152.56" r="1.7222" fill="#fff" opacity=".902" style="paint-order:markers stroke fill"/>
   <circle cx="-.56131" cy="124.78" r="2.8561" fill="#fff" opacity=".902" style="paint-order:markers stroke fill"/>
   <circle cx="39.882" cy="186.77" r="1.7222" fill="#fff" opacity=".902" style="paint-order:markers stroke fill"/>
   <circle cx="-310.59" cy="-110.41" r="2.8561" fill="#fff" opacity=".902" style="paint-order:markers stroke fill"/>
   <circle cx="124.52" cy="-127.52" r="2.8561" fill="#fff" opacity=".902" style="paint-order:markers stroke fill"/>
   <path d="m-435.98 96.775c-18.942 0.0069-34.84 14.274-36.891 33.104-4.8442-6.401-12.405-10.166-20.432-10.175-10.612 0.0134-20.121 6.556-23.924 16.463-2.3199-0.77333-4.7486-1.1706-7.1941-1.1767-11.85 5e-3 -21.744 9.0382-22.825 20.839-0.57804-0.0592-1.1599-0.0902-1.7425-0.0932-8.1408 2e-5 -14.74 5.3773-14.74 12.011 5e-3 1.1081 0.19714 2.2104 0.5725 3.2755l223.04 1.8785c2.8153-27.846-30.406-37.902-37.452-37.91-2.3011 8e-3 -4.5856 0.39102-6.7645 1.1312-2.2252-8.8486-9.171-15.735-18.038-17.884-6.084-13.075-19.19-21.444-33.611-21.462z" fill="url(#ad)" opacity=".902" style="paint-order:markers stroke fill"/>
   <path d="m-150.16 7.8052c-7.887 0.00289-14.507 5.9434-15.361 13.784-2.017-2.6653-5.1652-4.233-8.5077-4.2367-4.4186 0.0056-8.3781 2.7299-9.9617 6.8549-0.96599-0.32201-1.9773-0.48742-2.9955-0.48996-4.9342 0.0019-9.0541 3.7634-9.5039 8.6771-0.24069-0.02462-0.48296-0.03756-0.72554-0.03881-3.3897 5e-6 -6.1376 2.2391-6.1376 5.0011 2e-3 0.46142 0.0821 0.9204 0.23839 1.3639l92.872 0.78218c1.1722-11.595-12.661-15.782-15.594-15.785-0.95817 0.0034-1.9094 0.16281-2.8167 0.471-0.92655-3.6845-3.8187-6.5519-7.511-7.4468-2.5333-5.4444-7.9905-8.929-13.995-8.9366z" fill="#fff" opacity=".486" style="paint-order:markers stroke fill"/>
   <path d="m160.58 202.38c-16.399 6e-3 -30.164 12.358-31.939 28.661-4.194-5.5418-10.74-8.8016-17.69-8.8092-9.1874 0.0116-17.42 5.6761-20.713 14.253-2.0086-0.66955-4.1113-1.0135-6.2285-1.0188-10.26 4e-3 -18.826 7.8251-19.761 18.042-0.50045-0.0512-1.0042-0.0781-1.5086-0.0807-7.0482 1e-5 -12.762 4.6556-12.762 10.399 4e-3 0.95941 0.17068 1.9138 0.49566 2.8359l193.11 1.6264c2.4374-24.109-26.325-32.815-32.425-32.822-1.9923 7e-3 -3.9702 0.33853-5.8566 0.97933-1.9265-7.661-7.9402-13.623-15.617-15.484-5.2674-11.32-16.614-18.566-29.1-18.582z" fill="url(#ab)" opacity=".902" style="paint-order:markers stroke fill"/>
   <circle transform="rotate(90)" cx="228.35" cy="114.02" r="95.13" fill="url(#aa)" opacity=".071918" style="paint-order:markers stroke fill"/>
   <circle transform="rotate(90)" cx="228.35" cy="114.02" r="128.39" fill="url(#z)" opacity=".034" style="paint-order:markers stroke fill"/>
   <circle transform="rotate(90)" cx="228.35" cy="114.02" r="173.75" fill="url(#y)" opacity=".034" style="paint-order:markers stroke fill"/>
   <circle cx="-114.02" cy="228.35" r="228.18" fill="url(#x)" opacity=".051" style="paint-order:markers stroke fill"/>
   <circle cx="-114.02" cy="228.35" r="297.72" fill="url(#w)" opacity=".045" style="paint-order:markers stroke fill"/>
   <circle cx="-114.02" cy="228.35" r="371.81" fill="url(#v)" opacity=".038" style="paint-order:markers stroke fill"/>
   <circle cx="-114.02" cy="228.35" r="485.2" fill="url(#u)" opacity=".024" style="paint-order:markers stroke fill"/>
   <circle cx="-396.12" cy="-191.66" r="2.8561" fill="#fff" opacity=".902" style="paint-order:markers stroke fill"/>
  </g>
  <path d="m7.3257 73.649c-6.3 0.0027-11.588 4.7475-12.27 11.01-1.6112-2.129-4.1259-3.3812-6.7957-3.3841-3.5295 0.0041-6.6922 2.1805-7.9572 5.4755-0.77164-0.25721-1.5794-0.38935-2.3928-0.39136-3.9414 0.0014-7.2322 3.0061-7.5915 6.931-0.19224-0.01976-0.38575-0.03004-0.57951-0.03099-2.7076 1.4e-5 -4.9026 1.7885-4.9026 3.9947 0.0027 0.36857 0.0655 0.7352 0.19041 1.0895l74.184 0.62478c0.93637-9.2616-10.113-12.606-12.456-12.609-0.76538 0.002707-1.5252 0.13005-2.2499 0.37623-0.7401-2.9431-3.0503-5.2335-5.9996-5.9483-2.0235-4.3489-6.3826-7.1323-11.179-7.1383z" fill="url(#af)" style="paint-order:markers stroke fill"/>
  <path d="m0.38535 133.16c-5.9276 1e-3 -10.903 4.4669-11.545 10.36-1.5159-2.0031-3.882-3.1814-6.394-3.1841-3.3209 4e-3 -6.2967 2.0516-7.4868 5.1519-0.72602-0.24201-1.4861-0.36633-2.2513-0.36823-3.7084 1e-3 -6.8047 2.8284-7.1428 6.5213-0.18087-0.0185-0.36294-0.0283-0.54526-0.0292-2.5476 0-4.6128 1.6828-4.6128 3.7586 0.0027 0.34678 0.06171 0.69173 0.17915 1.025l69.799 0.58784c0.88103-8.7141-9.5153-11.861-11.72-11.864-0.72014 3e-3 -1.435 0.12234-2.1169 0.35397-0.69636-2.7691-2.87-4.9241-5.6449-5.5967-1.9039-4.0918-6.0053-6.7107-10.518-6.7164z" fill="url(#ag)" style="paint-order:markers stroke fill"/>
  <path d="m212.68 111.83c4.6242 1e-3 8.5055 3.4847 9.0061 8.0816 1.1826-1.5627 3.0284-2.4818 4.9881-2.484 2.5907 3e-3 4.9121 1.6005 5.8406 4.019 0.56637-0.1888 1.1593-0.28578 1.7563-0.28726 2.893 1e-3 5.3085 2.2065 5.5722 5.0874 0.14111-0.0145 0.28314-0.0221 0.42537-0.0227 1.9874 0 3.5985 1.3128 3.5985 2.9321-3e-3 0.27052-0.0482 0.53963-0.13977 0.79965l-54.451 0.4586c-0.6873-6.798 7.423-9.253 9.143-9.255 0.5618 1e-3 1.1195 0.0954 1.6514 0.27616 0.54324-2.1602 2.2389-3.8414 4.4037-4.3661 1.4853-3.1921 4.6849-5.2351 8.2056-5.2395z" fill="url(#ah)" style="paint-order:markers stroke fill"/>
 </g>
</svg>
